<svg xmlns="http://www.w3.org/2000/svg" viewBox="0 0 852 1218" width="852" height="1218" role="img"><title>JobBear palette</title><rect width="852" height="1218" fill="#FAFAF7"/><g font-family="Onest, ui-sans-serif, system-ui, sans-serif"><text x="40" y="70" font-size="18" font-weight="600" fill="#2A1F19">birch</text><rect x="170" y="40" width="150" height="84" rx="10" fill="#F3F4EF" stroke="#E4E5DD"/><text x="170" y="144" font-size="14" font-weight="600" fill="#2A1F19">birch</text><text x="170" y="162" font-size="13" fill="#76695F">#F3F4EF</text><rect x="334" y="40" width="150" height="84" rx="10" fill="#FAFAF7" stroke="#E4E5DD"/><text x="334" y="144" font-size="14" font-weight="600" fill="#2A1F19">birch-50</text><text x="334" y="162" font-size="13" fill="#76695F">#FAFAF7</text><rect x="498" y="40" width="150" height="84" rx="10" fill="#E4E5DD" stroke="#E4E5DD"/><text x="498" y="144" font-size="14" font-weight="600" fill="#2A1F19">birch-200</text><text x="498" y="162" font-size="13" fill="#76695F">#E4E5DD</text><rect x="662" y="40" width="150" height="84" rx="10" fill="#D3D4C9" stroke="#E4E5DD"/><text x="662" y="144" font-size="14" font-weight="600" fill="#2A1F19">birch-300</text><text x="662" y="162" font-size="13" fill="#76695F">#D3D4C9</text><text x="40" y="214" font-size="18" font-weight="600" fill="#2A1F19">bark</text><rect x="170" y="184" width="150" height="84" rx="10" fill="#2A1F19" stroke="#E4E5DD"/><text x="170" y="288" font-size="14" font-weight="600" fill="#2A1F19">bark</text><text x="170" y="306" font-size="13" fill="#76695F">#2A1F19</text><rect x="334" y="184" width="150" height="84" rx="10" fill="#4A3A30" stroke="#E4E5DD"/><text x="334" y="288" font-size="14" font-weight="600" fill="#2A1F19">bark-700</text><text x="334" y="306" font-size="13" fill="#76695F">#4A3A30</text><rect x="498" y="184" width="150" height="84" rx="10" fill="#76695F" stroke="#E4E5DD"/><text x="498" y="288" font-size="14" font-weight="600" fill="#2A1F19">bark-500</text><text x="498" y="306" font-size="13" fill="#76695F">#76695F</text><rect x="662" y="184" width="150" height="84" rx="10" fill="#9A8F86" stroke="#E4E5DD"/><text x="662" y="288" font-size="14" font-weight="600" fill="#2A1F19">bark-400</text><text x="662" y="306" font-size="13" fill="#76695F">#9A8F86</text><text x="40" y="358" font-size="18" font-weight="600" fill="#2A1F19">honey</text><rect x="170" y="328" width="150" height="84" rx="10" fill="#E9A825" stroke="#E4E5DD"/><text x="170" y="432" font-size="14" font-weight="600" fill="#2A1F19">honey</text><text x="170" y="450" font-size="13" fill="#76695F">#E9A825</text><rect x="334" y="328" width="150" height="84" rx="10" fill="#FDF5E2" stroke="#E4E5DD"/><text x="334" y="432" font-size="14" font-weight="600" fill="#2A1F19">honey-50</text><text x="334" y="450" font-size="13" fill="#76695F">#FDF5E2</text><rect x="498" y="328" width="150" height="84" rx="10" fill="#C98A0E" stroke="#E4E5DD"/><text x="498" y="432" font-size="14" font-weight="600" fill="#2A1F19">honey-600</text><text x="498" y="450" font-size="13" fill="#76695F">#C98A0E</text><rect x="662" y="328" width="150" height="84" rx="10" fill="#7A5208" stroke="#E4E5DD"/><text x="662" y="432" font-size="14" font-weight="600" fill="#2A1F19">honey-800</text><text x="662" y="450" font-size="13" fill="#76695F">#7A5208</text><text x="40" y="502" font-size="18" font-weight="600" fill="#2A1F19">pine</text><rect x="170" y="472" width="150" height="84" rx="10" fill="#2E5E4E" stroke="#E4E5DD"/><text x="170" y="576" font-size="14" font-weight="600" fill="#2A1F19">pine</text><text x="170" y="594" font-size="13" fill="#76695F">#2E5E4E</text><rect x="334" y="472" width="150" height="84" rx="10" fill="#E7F0EC" stroke="#E4E5DD"/><text x="334" y="576" font-size="14" font-weight="600" fill="#2A1F19">pine-50</text><text x="334" y="594" font-size="13" fill="#76695F">#E7F0EC</text><rect x="498" y="472" width="150" height="84" rx="10" fill="#214539" stroke="#E4E5DD"/><text x="498" y="576" font-size="14" font-weight="600" fill="#2A1F19">pine-700</text><text x="498" y="594" font-size="13" fill="#76695F">#214539</text><text x="40" y="646" font-size="18" font-weight="600" fill="#2A1F19">lake</text><rect x="170" y="616" width="150" height="84" rx="10" fill="#3F6E8C" stroke="#E4E5DD"/><text x="170" y="720" font-size="14" font-weight="600" fill="#2A1F19">lake</text><text x="170" y="738" font-size="13" fill="#76695F">#3F6E8C</text><rect x="334" y="616" width="150" height="84" rx="10" fill="#E8F0F5" stroke="#E4E5DD"/><text x="334" y="720" font-size="14" font-weight="600" fill="#2A1F19">lake-50</text><text x="334" y="738" font-size="13" fill="#76695F">#E8F0F5</text><text x="40" y="790" font-size="18" font-weight="600" fill="#2A1F19">heather</text><rect x="170" y="760" width="150" height="84" rx="10" fill="#6D5A9E" stroke="#E4E5DD"/><text x="170" y="864" font-size="14" font-weight="600" fill="#2A1F19">heather</text><text x="170" y="882" font-size="13" fill="#76695F">#6D5A9E</text><rect x="334" y="760" width="150" height="84" rx="10" fill="#EFECF6" stroke="#E4E5DD"/><text x="334" y="864" font-size="14" font-weight="600" fill="#2A1F19">heather-50</text><text x="334" y="882" font-size="13" fill="#76695F">#EFECF6</text><text x="40" y="934" font-size="18" font-weight="600" fill="#2A1F19">berry</text><rect x="170" y="904" width="150" height="84" rx="10" fill="#B23A55" stroke="#E4E5DD"/><text x="170" y="1008" font-size="14" font-weight="600" fill="#2A1F19">berry</text><text x="170" y="1026" font-size="13" fill="#76695F">#B23A55</text><rect x="334" y="904" width="150" height="84" rx="10" fill="#F8E8EC" stroke="#E4E5DD"/><text x="334" y="1008" font-size="14" font-weight="600" fill="#2A1F19">berry-50</text><text x="334" y="1026" font-size="13" fill="#76695F">#F8E8EC</text><text x="40" y="1078" font-size="18" font-weight="600" fill="#2A1F19">ash</text><rect x="170" y="1048" width="150" height="84" rx="10" fill="#8A8A84" stroke="#E4E5DD"/><text x="170" y="1152" font-size="14" font-weight="600" fill="#2A1F19">ash</text><text x="170" y="1170" font-size="13" fill="#76695F">#8A8A84</text><rect x="334" y="1048" width="150" height="84" rx="10" fill="#EEEEEA" stroke="#E4E5DD"/><text x="334" y="1152" font-size="14" font-weight="600" fill="#2A1F19">ash-50</text><text x="334" y="1170" font-size="13" fill="#76695F">#EEEEEA</text></g></svg>
